<?xml version="1.0" standalone="no"?><!DOCTYPE svg PUBLIC "-//W3C//DTD SVG 1.1//EN" "http://www.w3.org/Graphics/SVG/1.1/DTD/svg11.dtd"><svg t="1582003707265" class="icon" viewBox="0 0 1024 1024" version="1.1" xmlns="http://www.w3.org/2000/svg" p-id="6782" data-spm-anchor-id="a313x.7781069.0.i22" xmlns:xlink="http://www.w3.org/1999/xlink" width="200" height="200"><defs><style type="text/css"></style></defs><path d="M1024 512c0 282.772688-229.230924 512-512.005419 512C229.230924 1024 0 794.772688 0 512 0 229.238149 229.230924 0 511.994581 0 794.769076 0 1024 229.238149 1024 512zM511.994581 566.303988c54.314825 54.303988 108.62062 108.609783 162.924608 162.922802 14.989815 14.989815 39.303336 14.989815 54.303988 0 15.002459-15.000653 15.002459-39.314173 0-54.313019l-162.91377-162.913771c54.305794-54.302182 108.609783-108.609783 162.91377-162.911964 15.002459-15.000653 15.002459-39.314173 0-54.303989-15.000653-15.000653-39.314173-15.000653-54.303988 0-54.303988 54.303988-108.609783 108.60617-162.924608 162.913771l-162.91377-162.913771c-14.989815-15.000653-39.303336-15.000653-54.303988 0-14.989815 14.989815-14.989815 39.303336 0 54.303989l162.91377 162.911964-162.91377 162.913771c-14.989815 15.000653-14.989815 39.314173 0 54.313019 15.000653 14.989815 39.314173 14.989815 54.303988 0 54.305794-54.313019 108.607976-108.618814 162.91377-162.922802z" fill="#0f8ee9" p-id="6783" data-spm-anchor-id="a313x.7781069.0.i23" class=""></path></svg>