<?xml version="1.0" encoding="utf-8"?>
<!-- Generator: Adobe Illustrator 24.0.3, SVG Export Plug-In . SVG Version: 6.00 Build 0)  -->
<svg version="1.1" id="图层_1" xmlns="http://www.w3.org/2000/svg" xmlns:xlink="http://www.w3.org/1999/xlink" x="0px" y="0px"
	 viewBox="0 0 200 200" style="enable-background:new 0 0 200 200;" xml:space="preserve">
<style type="text/css">
	.st0{fill:#0F8EE9;}
</style>
<path class="st0" d="M102.9,11c-36.3,0.1-65.7,29.5-65.7,65.8c0,33.9,27.7,69.5,59.7,107.9c1.7,2,3.9,3.1,6,3.2
	c2.2-0.1,4.3-1.2,6-3.2c32-38.4,59.7-74,59.7-107.9C168.6,40.5,139.2,11.1,102.9,11L102.9,11z M102.9,97.7
	c-14.2-0.1-25.7-11.6-25.7-25.8s11.5-25.7,25.7-25.8c14.2,0.1,25.7,11.6,25.7,25.8S117.1,97.6,102.9,97.7z"/>
</svg>
