<?xml version="1.0" encoding="utf-8"?>
<!-- Generator: Adobe Illustrator 24.0.3, SVG Export Plug-In . SVG Version: 6.00 Build 0)  -->
<svg version="1.1" id="图层_1" xmlns="http://www.w3.org/2000/svg" xmlns:xlink="http://www.w3.org/1999/xlink" x="0px" y="0px"
	 viewBox="0 0 200 200" style="enable-background:new 0 0 200 200;" xml:space="preserve">
<style type="text/css">
	.st0{fill:#0F8EE9;}
</style>
<path class="st0" d="M100,18c-45.3,0-82,36.7-82,82s36.7,82,82,82s82-36.7,82-82S145.3,18,100,18z M143.5,79.4L96.1,140
	c-4.7,6-13.4,6-18-0.2l-22.7-30.3c-2.7-3.6-2-8.8,1.6-11.5c3.6-2.7,8.8-2,11.5,1.6l18.6,26.2l43.4-56.6c2.8-3.6,7.9-4.2,11.5-1.4
	C145.6,70.6,146.2,75.8,143.5,79.4z"/>
</svg>
