<?xml version="1.0" encoding="utf-8"?>
<!-- Generator: Adobe Illustrator 24.0.3, SVG Export Plug-In . SVG Version: 6.00 Build 0)  -->
<svg version="1.1" id="图层_1" xmlns="http://www.w3.org/2000/svg" xmlns:xlink="http://www.w3.org/1999/xlink" x="0px" y="0px"
	 viewBox="0 0 200 200" style="enable-background:new 0 0 200 200;" xml:space="preserve">
<style type="text/css">
	.st0{fill:#0F8EE9;}
</style>
<path class="st0" d="M103.9,77.9c-4.3,4.3-4.3,11.3,0,15.7c6.3,6.3,6.3,16.6,0,22.9l-32.7,33c-5.9,6.8-16.1,7.5-22.9,1.6
	c-6.8-5.9-7.5-16.1-1.6-22.9c0.5-0.6,1-1.1,1.6-1.6l7.3-7.9c4.3-4.4,4.3-11.4-0.1-15.7c-4.4-4.3-11.4-4.3-15.7,0.1l-7.3,8.2
	c-14.5,15.6-13.6,39.9,2,54.4c14.8,13.7,37.6,13.7,52.4,0l32.8-32.8c15-15,15-39.3,0-54.4C115.5,73.9,108.5,73.6,103.9,77.9
	C103.9,77.8,103.9,77.8,103.9,77.9z"/>
<path class="st0" d="M164.8,33.4c-15.2-14.5-39.2-14.5-54.4,0L77.9,65.7c-15,15-15,39.3,0,54.4c4.3,4.4,11.4,4.4,15.7,0.1
	c4.4-4.3,4.4-11.4,0.1-15.7c-6.3-6.3-6.3-16.6,0-22.9l32.8-32.8c6.4-6.1,16.5-6.1,22.9,0c6.3,6.3,6.3,16.6,0,22.9l-7.9,7.9
	c-4.4,4.3-4.4,11.4-0.1,15.7s11.4,4.4,15.7,0.1l7.9-7.9C179.7,72.4,179.6,48.3,164.8,33.4z"/>
</svg>
